<svg xmlns="http://www.w3.org/2000/svg" xmlns:xlink="http://www.w3.org/1999/xlink" width="127" height="129" viewBox="0 0 127 129">
  <defs>
    <clipPath id="clip-path">
      <rect id="사각형_10" data-name="사각형 10" width="127" height="129" transform="translate(100 256.251)" fill="#fff" stroke="#fff" stroke-width="1"/>
    </clipPath>
  </defs>
  <g id="마스크_그룹_3" data-name="마스크 그룹 3" transform="translate(-100 -256.251)" clip-path="url(#clip-path)">
    <g id="heart-shape-outline-with-lifeline" transform="translate(100 262.94)">
      <path id="패스_3" style="fill:#6f2dff;" data-name="패스 3" d="M127.267,52.814A40.751,40.751,0,0,1,125.474,64.8c-5.9,28.278-56.875,62.711-59.041,64.154a2.655,2.655,0,0,1-2.964,0c-1.034-.69-25.483-17.165-42.822-36.686a3.1,3.1,0,0,1,.112-4.188,2.666,2.666,0,0,1,3.933.121c14.474,16.3,34.671,30.824,40.261,34.723,8.436-5.886,50.226-36.078,55.164-59.688A35.64,35.64,0,0,0,121.7,52.821a33.4,33.4,0,0,0-15.961-28.839A29.537,29.537,0,0,0,90.849,19.9,30.05,30.05,0,0,0,67.088,31.811a2.728,2.728,0,0,1-2.14,1.074h0a2.692,2.692,0,0,1-2.139-1.074A30.127,30.127,0,0,0,39.028,19.9a29.573,29.573,0,0,0-14.9,4.081C14.285,29.787,8.17,40.843,8.17,52.814A34.473,34.473,0,0,0,9.7,62.951a36.846,36.846,0,0,0,3.7,9.54H32.013l5.959-10.639a2.741,2.741,0,0,1,2.336-1.439,2.637,2.637,0,0,1,2.385,1.353L52.443,77.78,63.308,46.467a2.794,2.794,0,0,1,2.6-1.941h.005a2.789,2.789,0,0,1,2.6,1.935l9.1,26.03H93.729a2.972,2.972,0,0,1,0,5.932H75.682A2.806,2.806,0,0,1,73.069,76.5L65.929,56.022,55.749,85.4a2.8,2.8,0,0,1-2.3,1.912,2.646,2.646,0,0,1-.307.023A2.761,2.761,0,0,1,50.8,85.978L40.462,68.994l-4.479,7.994A2.756,2.756,0,0,1,33.6,78.436H2.782a2.971,2.971,0,0,1,0-5.931H7.065a38.16,38.16,0,0,1-2.727-7.98A39.884,39.884,0,0,1,2.608,52.82c0-14.128,7.217-27.166,18.831-34.031a34.863,34.863,0,0,1,17.589-4.817A35.265,35.265,0,0,1,64.942,25.5a35.232,35.232,0,0,1,25.9-11.531,34.83,34.83,0,0,1,17.59,4.817C120.07,25.645,127.267,38.691,127.267,52.814Z" transform="translate(0 -13.972)" fill="#fff"/>
    </g>
  </g>
</svg>
